<?xml version="1.0" encoding="UTF-8"?>
<svg id="Layer_1" xmlns="http://www.w3.org/2000/svg" version="1.1" viewBox="0 0 128 128">
  <g id="icon" fill="currentColor">
  <path d="M19.7,38.9c0-4.8-3.9-8.7-8.7-8.7h-6.5v-8.7c0-3.6,2.9-6.5,6.5-6.5h74.2c3.6,0,6.5,2.9,6.5,6.5v5c1.5.8,3,1.7,4.4,2.7v-7.7c0-6-4.9-10.9-10.9-10.9H10.9C4.9,10.5,0,15.4,0,21.4,0,27.6,0,81.5,0,89.1c0,6,4.9,10.9,10.9,10.9,1.8,0,51,0,54.6,0v-4.4H19.7v-56.8ZM13.5,73.4c3.4,0,3.4,5.2,0,5.2-3.4,0-3.4-5.2,0-5.2ZM13.5,62.3c3.4,0,3.4,5.2,0,5.2-3.4,0-3.4-5.2,0-5.2ZM13.5,89.8c-3.4,0-3.4-5.2,0-5.2,3.4,0,3.4,5.2,0,5.2ZM13.5,56.8c-3.4,0-3.4-5.2,0-5.2,3.4,0,3.4,5.2,0,5.2ZM13.5,46.3c-3.4,0-3.4-5.2,0-5.2,3.4,0,3.4,5.2,0,5.2Z"/>
  <path d="M17.5,19.2c0,2.9,4.3,2.9,4.4,0,0-2.9-4.3-2.9-4.4,0Z"/>
  <path d="M30.6,19.2c0-2.9-4.3-2.9-4.4,0,0,2.9,4.3,2.9,4.4,0Z"/>
  <path d="M8.7,19.2c0,2.9,4.3,2.9,4.4,0,0-2.9-4.3-2.9-4.4,0Z"/>
  <path d="M43.7,93.5c.6,0,1.1-.2,1.5-.6l4.4-4.4c.9-.9.9-2.2,0-3.1l-4.4-4.4c-2-2-5.1,1.1-3.1,3.1l2.8,2.8-2.8,2.8c-1.4,1.3-.3,3.8,1.5,3.7h0Z"/>
  <path d="M24.7,33.9l4.4,4.4c.4.4,1,.6,1.5.6,1.9,0,2.9-2.4,1.5-3.7l-2.8-2.8,2.8-2.8c2-2-1.1-5.1-3.1-3.1l-4.4,4.4c-.9.9-.9,2.2,0,3.1h0Z"/>
  <path d="M48,34.5c2.9,0,2.9-4.3,0-4.4h-13.1c-2.9,0-2.9,4.3,0,4.4h13.1Z"/>
  <path d="M76.4,43.3c0-1.2-1-2.2-2.2-2.2H26.2c-1.2,0-2.2,1-2.2,2.2s1,2.2,2.2,2.2h48c1.2,0,2.2-1,2.2-2.2Z"/>
  <path d="M26.2,52c-2.9,0-2.9,4.3,0,4.4h37.1c2.9,0,2.9-4.3,0-4.4H26.2Z"/>
  <path d="M24,65.1c0,1.2,1,2.2,2.2,2.2h39.9c.5-1.6,1.2-3.1,2.1-4.4H26.2c-1.2,0-2.2,1-2.2,2.2h0Z"/>
  <path d="M59,76c0-1.2-1-2.2-2.2-2.2h-30.6c-1.2,0-2.2,1-2.2,2.2s1,2.2,2.2,2.2h30.6c1.2,0,2.2-1,2.2-2.2Z"/>
  <path d="M26.2,84.7c-2.9,0-2.9,4.3,0,4.4h13.1c2.9,0,2.9-4.3,0-4.4h-13.1Z"/>
  <path d="M120.1,60.7c-11.7,0-27.6,0-39.3,0-6,0-10.9,4.9-10.9,10.9v34.9c0,6,4.9,10.9,10.9,10.9h13.1c6.5,0,19.7,0,26.2,0,6,0,10.9-4.9,10.9-10.9v-34.9c0-6-4.9-10.9-10.9-10.9ZM91.7,65.1h17.5v6.5c0,1.2-1,2.2-2.2,2.2h-13.1c-1.2,0-2.2-1-2.2-2.2v-6.5ZM109.2,113.1h-17.5v-6.5c0-1.2,1-2.2,2.2-2.2h13.1c1.2,0,2.2,1,2.2,2.2v6.5ZM119.5,79.7l-18.9,18.9c-.8.9-2.3.9-3.1,0l-9.5-9.5c-2-2,1.1-5.1,3.1-3.1l7.9,7.9,17.4-17.4c2-2,5.1,1.1,3.1,3.1h0Z"/>
  <path d="M95.4,48c-1,.7-1.2,2.1-.4,3.1l5,6.6c.9,1.1,2.5,1.1,3.5,0l5-6.6c1.7-2.3-1.8-4.9-3.5-2.6l-1.2,1.6c-1.9-18.4-24-28.8-39.4-18-2.4,1.6,0,5.2,2.4,3.6,12.3-8.6,30.1-.8,32.4,13.7-.9-1.4-2.2-2.5-3.7-1.4h0Z"/>
  </g>
</svg>