<?xml version="1.0" encoding="UTF-8"?>
<svg id="Layer_3" data-name="Layer 3" xmlns="http://www.w3.org/2000/svg" version="1.1" viewBox="0 0 128 128">
  <g id="icon">
  <path d="M86.1,53.6" style="fill: #7bcb52; stroke-width: 0px;"/>
  <path d="M86.1,53.6" style="fill: #7bcb52; stroke-width: 0px;"/>
  <g style="opacity: .4;">
    <polygon points="43 42.8 19.6 42.8 6 56.8 6 98.8 43 98.8 43.2 85.1 20 84.8 20 56.8 43 56.8 43 42.8" style="fill: #7bcb52; stroke-width: 0px;"/>
    <polygon points="68.4 49.6 82.4 35.7 59.4 35.7 45.4 49.7 45.4 70.7 68.4 70.7 68.4 77.7 59.4 77.7 45.4 91.7 68.4 91.7 82.4 77.7 82.4 56.7 59.4 56.7 59.4 49.6 68.4 49.6" style="fill: #7bcb52; stroke-width: 0px;"/>
    <polygon points="107.7 42.5 121.7 28.6 98.7 28.6 84.7 42.6 84.7 63.6 107.7 63.6 107.7 70.6 98.7 70.6 84.7 84.6 107.7 84.6 121.7 70.6 121.7 49.6 98.7 49.6 98.7 42.5 107.7 42.5" style="fill: #7bcb52; stroke-width: 0px;"/>
  </g>
  <g>
    <path d="M29.6,42.9c0,.5.5.1.9,0-.1-.3-.6-.1-.7-.1,0,0,0-.2,0-.2.4,0,.8,0,1.1.1,0,.2.1.3,0,.5.3,0,.7-.4.9-.3,0,.3-.6.2-.4.5,0,.2.5,0,.5-.2.4,0,.5,0,.7,0,0,.2-.4.2-.6.2.2.1.2.4.3.5,0,0,0,.2,0,.2,0,0-.1.1-.2.2.2,0,.2-.1.2-.2.2,0,.4-.2.6-.4.2.1.7.3.5.6.4-.2.6.3.7.5.8.6.9,1.4.7,2.7.4.6,0,2.2-.5,3.6-.5,1.6-1,2.9-1.1,4.2-.2-.3,0-1.4.2-2.3-.5.4-.3,2-1.1,2.3-.1.2-.4.3-.3.5-.6.1-.5.7-.9,1.1-.5.2-.8.5-1.3.7-.6,0-1.3.5-1.8.3-2.1,1.2-3.3-.2-3.5-1.7,0,0,0,0-.1.2,0-.3-.1-.7-.1-1.1.3,0,.3-.5.7-.5,0,.2-.2.3,0,.4.3,0,.2-.2.5-.2,0,.2-.2.4,0,.4.4-.6.7-1.6.7-2.4.3-.9.9-2.4.6-3.4-.9.8-1.6,1.7-2.3,2.7-1,.1-1,1.2-1.8,1.5,0,0,.1.2,0,.4,0,.2-.3.2-.4.3-.4,1.3-1.8,2.1-2.2,3.5-.8.5-.7,1.6-1.6,2,0,0,.2.1,0,.3-1.6,2.5-3,5.3-4.5,7.8,0,.2.2.1,0,.4-1.1,1.6-1.6,3.6-2.5,5.6,0,.2.3,0,.1.3-.5.3-.5,1.1-.9,1.6,0,.2,0,.3.1.3-.9,1.8-1.2,3.9-1.8,5.7-.4,1.1-.3,1.7-.7,2.5-.2,1.4-.2,2.8-.7,4.2,0,.7.3,2,.3,2.7.1.2.4.4.2.8.1.7.4,1.4.6,2,1,1,3.2-.3,4.7-1.3,0,0,0,.2,0,.4.7-.4,1.3-.7,1.7-1.4,1.3-.2,2.1-1.7,3.2-2.5.2,0,0,.2.3.1.2-.2,0-.2,0-.5,2-1.6,3.4-3.5,5.1-5.2.2.2-.3.6-.2.9.5,0,.1-.7.5-.8,0,.2.2.1.3,0,0,0-.2,0-.3,0,0-.2-.1-.1-.2-.4.5-.2.4-1,1.1-.8-.3.2-.4.5-.7.8,0,0,.3.1.4.2-.1.3-.3.4-.7.8.5,0,.7-.7,1.1-.9,0-.2-.2-.1-.4,0,.7-1,1.3-1.8,2-2.9,0,0,.1-.2.1-.3.2,0,.1.2.1.3.5-.3.7-.9,1.2-1.3-.5,1.1-1.6,1.9-2.1,3q0,0,0,0t0,0c.8-.6,1.2-1.3,1.8-1.9.3,0,0,0,0,.3.4,0,.4-.5.2-.7.3-.1.2.1.2.3.2-.1.3-.8.3-.9.2-.1.4-.3.6-.5,0,0,0,.2,0,.3.2-.1.4-.3.5-.6.6.1.2-.9.8-1.1-.2-.4-.4.2-.6.1-.3.3-.4.9-.8.8.6-.7.9-1.3,1.5-2-.2.4,0,.5-.3.8.2.2.2-.1.5-.2,0,.2-.2.3-.2.5.4-.3.8-.6.8-1.3-.2,0-.1.3-.4.3,0,0,0-.2-.2-.1.3-.4.6-.9,1-1.2,0,0,0-.2,0-.3,1.9-2,3.6-4.2,5.2-6.5,1.1-1.2,2.2-2.5,3.2-3.8,1.1-1.2,2.2-2.3,2.9-3.8.9-.8,1.5-1.9,2.6-2.6.2-.9,1.4-1.7,2-2.5-.7,1.6-1.7,2.9-2.2,4.1-.6.8-1.2,1.5-1.6,2.5-.5.2-1.1,1.2-1.3,1.8-.9.3-.3,1.1-1,1.7,0-.2,0-.2,0-.3-.2,0-.5.6-.2.5-.2.4-.5.7-.6,1.2-.2,0-.2,0-.3,0-.2.1.1.2,0,.4-.9.9-1.4,2.1-2.4,2.9,0,.2.1.2,0,.4-.2,0,0,0-.2-.1-.2.3-.2.6-.3.9-.2,0-.2,0-.4,0,0,.2.2.2,0,.4-.5.3-.7.7-1,1.1-.6.3-.8,1-1.2,1.5-.1.3.1.3,0,.6.4-.2.4-.6.7-.6,0,0,0-.2,0-.2,0-.2.4,0,.4-.2-.2-.1.1-.7,0-.9.2.3.4.5.6.7-.6.4-.7,1.6-1.4,2.2.3.3,0,.7-.2,1.3.5.2-.1,1.1-.4,1.8,0,0,0-.2,0-.2-.3.2-.3.5-.4.8-1.1.2-1,1.4-1.7,1.9.1-.2,0-.4.1-.6-.3.1-.3.4-.6.7.3.5-.8,1.4-1.2,2,0,0,0-.2-.1-.2-.2.4-.5.6-.5.9-.9.2-.9,1.8-1.8,1.8.1-.1.2-.3.2-.5-.7.1-.1.7-.1.8-.1.1-.3.2-.6.3,0,.3-.3.4-.2.7-1.1.4-1.3,2.1-2.4,2.1,0,.2-.2.4-.1.6-1,.5-.9,1.6-2.1,2-.4.4-.5.9-1.1,1,0,0,.1-.2,0-.2,0,0-.3.3,0,.2.1.2-.5.2-.2.3,0,0-.1.1-.2,0-.2.2-.6.4-.6.8-.2.1-.1-.1-.1-.3-.1.1,0,.4,0,.6-.3-.1-.4.2-.7.4,0,0,0,0,0-.2q0,0,0,0c0,0,.2,0,.1-.1,0,0-.2,0-.1.1q0,0,0,0c-.5.6-1.4.9-1.3,1.5-.1.3-.5.3-.6.5-.3,0-.4,0-.8,0-.2.4.1.5.2.3.4.2-.2.4-.4.3-.1-.2.3-.4,0-.6-.2,0-.3.2-.4.6-.3,0-.2-.1-.6,0-.1.1,0,.4-.4.4-.1.3,0,.3,0,.5-.9,0-1.3,1.1-2.4.8-1.4,1.1-3.1.7-4.7.8,0,0-.1-.1.1-.3-.7.2-1.1-.4-1.4-.5-.5-.2-.7,0-.9-.3-.2-.4-.8-.4-1-.6,0,0,0-.2,0-.3-.4-.6-1.2-.8-1.5-1.3,0-.2,0-.2,0-.3,0-.2-.2.3-.4,0,0,0,0,0,0-.2.2,0,.2-.1.2-.2,0-.2,0-.4-.3-.3-.2.2.1.3.1.5-.3,0-.3-.3-.4-.5q.2,0,.2-.1c0-.5-.5-.7-.5-1.3.2,0,.3,0,.3,0,0-.3-.5.2-.5-.2.4,0,.2-.5.5-.6-.2-.8-.7-1.3-.9-2.1.3,0,.3-.1.4-.2-.2-.3,0-1.2-.7-1.1-.1.3.3.5,0,.9-.2-.1.1-.3-.3-.4-.1.6.3,1.5,0,2.2-.9-.7-.3-1.9-.4-3.5,0,0-.2,0-.2.2,0-.4.6-1.2.1-1.5.2-.1.2-.4,0-.5.2,0,.1-.1.3-.2-.3-.4,0-.9.2-1.4,0,0,0,0-.2,0,1-1.3,1-3.1,1.3-4.7,0-.2.2-.2.4-.3-.2-.4.2-.7.4-1.1,0,0-.3,0-.2,0-.3,0,.1-.3.2-.4-.2-1,.9-1.9.8-3.1.3,0,.1-.3.4-.4.5-2,1.4-3.8,1.8-6,.5-.5.6-1.2.8-1.8,1.6-.5.5-2.5,2.1-3.1.6-.8.8-1.6.7-2.6,0,0,0,0,.1-.2.2,0,.4,0,.6-.1-.2.2-.1.7-.5.7,0,.2,0,.4,0,.6.5-.6,1.1-1.6,1-2,.3-.3.6-.4.7-.8-.3.1-.4,0-.7.4-.3,0,.2-.5,0-.7.2,0,.1-.1.3-.1-.2-.4.3-.9.4-1.4.2,0,.2,0,.3,0,.7-.8,1.3-1.8,1.8-2.8,0,0,.3,0,.4,0-.1-.2,0-.4-.1-.5-.2,0-.6.4-.7.3.8-1.4,1.9-1.9,2.3-3.4.5-.2,1-.8.8-1.1.1-.3.3,0,.6-.2.2-.4.6-.7.7-1.2.2,0,.4-.2.6-.3.3-.6.8-.8,1.2-1.1,0-.2,0-.2,0-.4.6-.1.7-.6,1.2-.7,0-.2,0-.2,0-.3.5,0,.5-.2.9-.4-.3-.3.6-1,.9-.9.2-.1.2-.3.2-.4.2-.1.2.1.4,0,.1-.2.2-.4.3-.5.3,0,.6,0,.8-.6.2-.1,0,.2.2.1.3-.2,0-.3-.2-.4.3-.4.7-.4,1-.9.1.2-.4.4-.5.6.4.3.6-.6,1.1-.7,0-.3-.2,0-.4,0,0-.3.5-.3.8-.5.3,0,0,.5.5.3-.1.3-.3,0-.3,0,0,0-.1.3-.3.4.3.4,1.1-.7,1,0,.3-.1,0-.2.1-.6.5.2.8.3,1.6,0,.1-.3,0-.3,0-.5.2,0,.4,0,.5.2,0,.2-.2.1-.2.3-.2,0-.2.1-.3.3ZM1.6,87.5,1.8,91.3q0,0,.2,0-.1.1-.1.2,0,0-.2,0,0,0,.1-.2ZM1.8,85c0-.2,0-.3.2-.4,0,.2,0,.3-.2.4ZM2.2,93.1c0,.6,0,.9-.2,1.2,0-.4,0-.7-.2-1.2.2,0,.1-.1.1-.2.2,0,0,.3.3.2ZM1.9,85.2,2,86.4,2.3,88.9c-.2.2-.2.8,0,.8.2-.3.3-.8,0-.8ZM2.5,94.5c0,0-.2,0-.2.3-.3,0,0-.4,0-.6.2,0,.3.2.2.4ZM2.4,86.8c.2,0,.4-.2.3.1,0,0-.2,0-.3,0,.1.3-.2.4-.1.7.4-.2.2,0,.4.2.3-.6.4-1.2.2-1.6,0,0-.1.3-.3.4,0,0-.2,0-.1.1ZM2.5,85.2c0,0-.2,0-.2,0-.1.2,0,.3,0,.6.3,0,.4-.4.3-.6ZM2.2,91.3,2.3,84.7,2.3,89.8,2.3,92.8,2.4,94c.2-.3.2-.5.5-.6,0,.2,0,.5-.5.6ZM2.6,95.2c0,.2-.2,0-.2-.1,0,0,.1.1.2.1ZM2.4,95,3,86.2c-.2-.4.1-.3.1-.7,0,0,0-.2-.2-.1-.2.4-.5.7-.4,1,.3,0,.3-.1.5-.2ZM3,87.8c-.5,0-.7.8-.3.9.4-.3.3-.4.3-.9ZM2.6,88.8c.1.1,0,.5,0,.5,0,0,.2-.6,0-.5ZM3.2,91.9c.2-.4-.3-.3-.4,0,0,0,.2.2.4,0ZM2.8,93.9c.3,0,0,.2.1.3-.2.1-.2-.2-.1-.3ZM3.2,85.1q0,0,0-.2c0,0,0,0-.2,0,0,.2-.2.1-.2.3.2,0,.2,0,.4,0ZM3,93.1q0,0,0,.2s0,0,0,0h0c0,0,0-.2.1-.2ZM2.9,95.6c0-.2.4,0,.5.3-.2-.1-.5-.2-.5-.3ZM3,84.9c0,0,.2,0,.2-.1,0,0-.2,0-.2.1ZM4,82.1c.3.1,0,.5-.2.5,0-.2,0-.2-.1-.2-.2.4.3.3,0,.9.2,0,.1-.1.3-.1,0,.4-.1,1.1-.6,1.6.3.3-.2,1,0,1.2.1-.3.6-.6.3-.8.3,0,.1-.2.3-.3-.2-.9.7-2.4,1.2-3.3,0,0-.3.1-.3,0,0-.2.3-.2.4-.3,0-.6.4-1.3.7-1.9-.6-.5.9-1.8.5-2.5,1.1-2.4,1.7-5.1,2.9-6.9,0-.7.6-1.5,1.1-2.3-.3-.4.1-.8.3-1.2-.2,0-.2,0-.4,0,.1.2-.1.3-.3.4-.2-.1-.1-.1,0-.5-.5.4-.6,1-.8,1.4.4.2.7-.8,1-.8-.4.3-.4,1-1.2,1.1-.5,1-1.1,2.5-1.6,3.4.5-1.5,1.2-2.7,1.5-3.9-.2,0-.2,0-.4,0-.2.4-.3,1.1-.5,1.5,0,0-.3.2-.3.2,0,.4.2,0-.2.5-.5.6-.4,1.3-.7,1.9h-.2c-.2.6,0,1-.5,1.4.3.7-.6,1.9-.6,2.6,0,0-.2,0-.3,0,0,.2,0,.4-.1.6.3.1.4-.2.4,0,0,.2-.2.2-.3.4.4-.2.3-.2.5-.5.2.9-.7,1.5-1.5,2,0,1.3-.6,2.3-.6,3.5-.3.1-.2-.1-.4,0,0,0,0,.2,0,.3.3-.1.3-.2.6-.1.3-.4.2-.9.4-1.2.1.2.1.7,0,1-.3,0,0,.2,0,0ZM3.4,82.5c-.1.6-.5,1.2,0,1.4,0-.6.2-1,0-1.4ZM3.3,79.8c-.2,0,0-.2,0-.2,0,0,0-.2-.1-.1.4-.3.5.2.2.4ZM3.4,87.8c0-.2-.2-.6.1-.7,0-.2,0-.6-.1-.7-.2.4-.1.3-.2.5.3,0-.2.8.2.8ZM3.2,84.3c0,0,.1.1.2,0,0,0-.2,0-.2,0ZM3.2,88.1,3.3,88.1c0,.2-.2.6,0,.5.1-.2,0-.3,0-.5ZM3.3,89.2,3.4,96.9,3.6,79c-.2,0-.3-.3-.2-.4.4-.2.2.3.2.4ZM3.5,78.3,3.6,94.5,3.9,77.8q0,0-.2,0,0,0,0-.2,0,0,0,0c.2,0,.2.1.1.2ZM3.9,93.7,3.9,81.1c.2-.2,0-.6.4-.7-.1.3,0,.6-.4.7ZM4.5,80c-.2,0-.1.1-.3.2-.2-.1.3-.3.2-.5.2,0,.1.1,0,.3ZM4.3,83.1c0,.2,0,0-.2,0,0,0,.1-.1.2,0ZM4.8,81.6c0,.2-.3.4-.5.5,0,0,0-.2,0-.2,0-.2.3-.2.2,0,.1-.1.1-.2.3-.2ZM4.5,82.3q0,0-.2.1c0,0,0-.2,0-.2.2,0,.2,0,.2.1ZM4.6,96.7c0,0,0-.2-.2-.2q0,0,0,.2c0,0,0,0,.2,0ZM4.4,78.8,4.5,75.9,5,77.7c0,0,0-.2,0-.2-.2,0-.1.1-.3.1-.1.3.2.1.4,0ZM4.8,89.7,5.1,73.4,5.1,85.6,5.1,78.4,5.2,82.1,5.3,99c0,0,.1-.3,0-.2,0-.2.3.1,0,.2ZM5.7,83c-.2,0-.2.2-.3.4.2,0,.2-.1.3-.4ZM5.9,84.6c0-.2,0-.4,0-.5-.3,0-.6.5-.3.6.2,0,.1-.1.3-.1ZM5.5,87c0,0,.2,0,.1-.1,0,0-.2,0-.1.1ZM5.5,76.1c0,0,0-.2.2-.2,0,0,0,.2-.2.2ZM5.5,76.1,5.7,76.3,5.8,80.8c.1.1,0,.4,0,.4,0-.2.3-.4,0-.4ZM5.8,75.9c.1-.2,0-.4.3-.5-.1.1.1.6-.3.5ZM5.9,71.2,6,82.8c.1.3,0,.5,0,.7.2-.2.3-.6,0-.7ZM6.1,75.4,6.1,81.5,6.2,75,6.2,90.1c0,0,.2,0,.1-.1,0,0-.2,0-.1.1ZM6.5,73.4c0,0-.1.1-.2.1,0,0,.1-.1.2-.1ZM6.3,75.9,6.4,83.1c0,0,.2,0,.1-.1,0,0-.2,0-.1.1ZM6.4,81.7c0,.2,0,.4.2.3,0-.2,0-.3-.2-.3ZM6.4,75.1,6.5,72.9c0,0,0-.2,0-.2.2-.1.2.4,0,.2ZM6.5,91.6c.2,0,.4,0,.4-.2q0,0,.2,0,0,0,.1-.2c-.2,0-.2.1-.3.2-.2,0-.4,0-.4.2ZM6.6,88.2,6.6,89.3,7.5,72.9c-.2.4,0,.4,0,.8-.2,0-.5.2-.5.3-.2,0-.2-.2-.3-.4.3.1.4-.2.4,0,0,0,.1-.2.2-.2.1-.3,0-.3,0-.6,0,0,.2,0,.2,0ZM6.7,87.2c0,0,0,.2,0,.2.3.1.3-.4,0-.2ZM6.8,98.8,6.8,91.2,6.8,80.5,6.9,90.7,7.1,92.1c-.2.4.2,0,0,0,0,0,0,0-.2,0,0,0,0,0,0,0,0,0,0,0,.2,0ZM7.1,98.1,7.9,99.2c-.1-.2.1-.2,0-.4-.3.1-.3-.1-.6,0,0,.2-.1.2-.1.3.3-.1.4,0,.6,0ZM7.3,86.3,7.4,67.5,7.6,92.6c-.2,0-.1.1-.2.2.2,0,.2-.1.2-.2ZM7.5,91.4c0,.2.1.2.3.2,0-.2-.1-.2-.3-.2ZM7.7,92.1q0,0,0-.2h-.2q0,.1,0,.2,0,0,.2,0ZM7.6,67,7.7,68.5,7.7,74.9,8,90.7q0,0,0-.2,0,0-.2,0,0,0,0,.2,0,0,.2,0ZM7.8,83.9,7.8,87.7,8.1,87c0,0,0-.2,0-.3q0,0-.2,0c0,0,0,.2,0,.3q0,0,.2,0ZM7.9,86.1,8,93.3c0,.2,0,.2.1.2,0-.2,0-.2-.1-.2ZM8.1,85.4,8.5,99.5,8.6,69.7,8.9,65.5q0,0,0,.2,0,0-.2,0,0,0,0-.2,0,0,.2,0ZM8.7,68.8,9.2,66.9c0-.2.2-.5.3-.8q0,0-.2,0c0,.3-.4.4-.5.7.2-.1.2,0,.4,0ZM9,69.2c0,0,0,0,0,0q0,0,0-.2c.2,0,.2.1.1.2ZM8.9,65.2,9.2,73.6c0,.2-.1.3,0,.4.3.1.3-.5,0-.4ZM9.3,64.1c0,0,0,0-.1.1,0,0,0,0,.1-.1ZM9.2,63.8,9.3,68.6,9.4,68.3,9.6,67,9.7,64.7,10.2,99.6c.2.1.6,0,1.1,0,0-.3-.7-.1-1.1,0ZM12.7,60.4c0,.2-.2.4,0,.5-1,.8-1.4,2.1-2,3.1,0,.2.2-.2.3,0-.2.8-.8,1.4-.8,2.1.6-.2.3-.8.7-1,.1-.3-.2-.1-.2-.4,1.2-.9,1.5-2.1,2.4-3.3,0,.6-.4.8-.5,1.2,1-.7.7-1.9,1.7-2.5.1-.7.5-1.1.8-1.6-.2,0-.3.3-.3,0,.4-.4.6-.8.7-1.2-.4,0-.3.4-.6.7-.1-.7.7-1.2.8-2-.9,1.1-1.8,2.3-2.6,3.5.2,0,0,.3,0,.4-.2.2-.5.2-.6.5h0ZM10.6,64.2c0,0-.5.5-.2.6,0-.2.4-.5.2-.6ZM10.7,66.2c.6,0,.7-.5.6-.9,0,0-.3,0-.3.1.3,0,0,.3,0,.6-.2,0-.2,0-.2.2,0,0,0,0,0,0ZM10.8,75.6c0,.2,0,.2.1.2,0-.2,0-.2-.1-.2ZM11.2,61.5c0,.2,0,0-.2,0,0,0,.1-.1.2,0ZM11.2,64.1c-.1-.1-.2-.2-.2-.5.3,0,.2.3.2.5ZM11.5,64.3c0,.2-.3.5,0,.5.1-.1.2-.4,0-.5ZM11.6,99,11.6,64.1,11.7,59.2,11.9,60c.3.1.3-.3.1-.3q0,0-.1.1,0,0,0,.2ZM12.5,59.8c0,0-.2,0-.3,0,0,0,0,.2,0,.3.2,0,.3,0,.3-.3ZM12.5,63.4q0,0,0-.2,0,0-.2,0,0,0,0,.2,0,0,.2,0ZM12.8,64.4c0,0-.1.3-.2.5.3,0,.5-.6.2-.5ZM12.8,60.5c.2-.1.1-.2,0-.2,0,0,0,.2,0,.2ZM12.8,58c0-.2.2-.2.2-.4.4-.2,0,.5-.2.4ZM13.7,68.8,13.8,56.7c-.3-.2.2-.5.3-.7.3.1-.3.5-.3.7ZM14.3,55.7,14.5,99.2,16.1,57.2c0,0-.2,0-.3,0,0,0,0,.4,0,.4,0-.2.2-.2.3-.4ZM16.1,55.4,16.8,54.7c-.3.1-.6.6-.5.7.3-.1.4-.4.5-.7ZM16.5,98,16.5,98,17,56.7c0,0,0,0-.3,0,0,.2,0,.2-.1.3.2,0,.2-.1.4-.3ZM17,56c-.1.2-.1.3.1.2,0-.2-.1-.1-.1-.2ZM17.3,53.9c0,.2,0,.2-.1.3.2.1.3-.4.1-.3ZM17.4,51.5c0,0,.2.1.2,0,0,0,0,0-.2,0ZM18.3,96.9c0,0,0-.2,0-.2-.2,0-.5.3-.4.4,0,0,.2-.1.3-.1ZM18.2,97.5c0,0,0-.2,0-.3.2,0,0,.2,0,.3ZM19.2,54.1,19.7,96.3c.2-.4.4-.6.7-.8-.2.3-.3.7-.7.8ZM20.1,50.2,20.5,95.5q0,0,0,0,0,0,0,0ZM20.5,95.5,21.7,46.7c.1-.1.2-.2.4-.2,0,0-.2.2-.4.2ZM22,93.2,22.4,93.3c0,0,0-.2-.2-.2q0,0,0,.2c0,0,0,0,.2,0ZM22.6,92.8,22.9,49.8,23.1,53.9c0,0,.1-.1.2-.3.3,0,0,.3-.2.3ZM23.6,85.8q0,0,0-.2,0,0,0,0c0,.2-.2,0-.2.3,0,0,.2,0,.3,0ZM23.5,92.3c0,0,0-.2,0-.3h-.2c0,.1,0,.3,0,.3q0,0,.2,0ZM23.7,85.4,23.9,91.4c0,0,.2,0,.1-.1,0,0-.2,0-.1.1ZM25.7,81.9c.3,0,0,.5-.3.5,0-.2.4-.2.3-.5ZM25.4,82.4,26,82.8c-.2.1-.4.3-.6.6.4-.2.7-.3.6-.6ZM26,44.3c-.2,0-.1.1-.3.2.2,0,.3-.1.3-.2ZM25.9,89.4,26.2,81.3,26.8,43,27.4,43.6c0,0-.2,0-.3,0,0,0,0,.2-.1.3.2,0,.4-.2.4-.3ZM27,80.7,27.4,44.4,27.6,87.3,27.7,81.3c.3.1.3-.3.1-.3q0,0-.1.1,0,0,0,.2ZM28.2,43.4c0,.2.2.4.3.1,0,0-.1-.1-.3-.1ZM28.3,79,28.3,79,28.4,78.8c0-.2.2-.2.2-.4.2,0,0,.4-.2.4ZM28.5,44.4,29.1,78.8c-.1.3-.2.6-.6.6.1-.2.3-.5.6-.6ZM28.7,79.7,29.2,83.7c-.3,0-.7.4-.4.6.3,0,.3-.4.4-.6ZM28.7,43.1,29,46.1,29.1,43.2,29.2,78.6,29.2,78.6,29.2,42.5,29.7,81.1c0,0-.2,0-.3,0,0,.3.2.2,0,.6.5,0,.7-.5.8-.9-.2.1-.4,0-.4-.2.2-.1.2-.3.2-.5.2,0,.2,0,.4,0,0-.2.3-.5,0-.4-.2.5-.7.4-.9.9-.2.4,0,.4.1.6ZM29.5,79,30.1,82.4c-.3,0-.5.7-.5,1,.4-.3.3-.7.5-1ZM29.7,77.3c0,0,.1-.3.3-.3,0,.2-.1.3-.3.3ZM29.7,43.6,30.1,79.6q0,0,0-.2,0,0-.2,0,0,0,0,.2,0,0,.2,0ZM30,84.5,30,76.9,30.8,43c-.3.1-.4,0-.6.2-.2.4.6.2.6-.2ZM30.5,76.2c.2,0,.1.1,0,.2h0c0,0,0-.2,0-.2ZM30.4,76.5,30.5,47.1,32.1,76.9c0,.4-.1.7-.3.9,0,0,0-.2-.2-.1-.4.6-1,1.5-.9,2,.4-.6.8-1,1.3-1.6,0,.2.2,0,.1.3,0,0-.2,0-.2.2,0,0,0,0,0,.2.3,0,.4-.3.4-.7-.2,0-.2,0-.2-.2.2-.1.3-.1.3-.4.2,0,.2.1.4-.2-.2-.3.3-.6.4-1.3.2,0,.2-.3.4-.3,0-.4.5-.7.1-.7-.2.2-.2.8-.6.6-.1.7-.6,1-1,1.4ZM30.8,83.3c0,0,0,.2,0,.2.2.1.2-.4,0-.2ZM30.9,76.5,30.9,82c.3.1.3-.3.1-.3q0,0,0,0,0,0,0,.2ZM31,83,31.1,43.6,31.1,83.3,31.4,82.7c-.2-.4.2-.5.3-.8-.3.1-.5.7-.5.9,0,0,.2,0,.2,0ZM31.6,42.9c-.2.1-.2-.1-.4,0,0-.2.4,0,.4,0ZM31.3,43.9,31.4,43.6,31.4,44.7,31.5,75.2,31.5,46.1,31.7,74.7q0,0,0,.2,0,0-.2,0,0,0,0-.2h.2ZM31.6,44,34,77.2c.1.3-.4.2-.3.4.2,0,.4-.2.4,0-.8.6-1.2,1.5-1.8,2.3,0-.2.3-.4,0-.5-.4.8.1,1.2-.5,1.8,0,.2,0,.3.2.4.5-.7.8-1.4,1.4-2.2.2-1.2,1.3-1.5,1.5-2.7-.3,0-.4.5-.6.7-.2,0-.1-.2-.3-.2ZM31.7,80.5c0,.2,0,.4.2.4,0-.2,0-.5-.2-.4ZM31.7,82.6c0,0,.2,0,.1-.1,0,0-.2,0-.1.1ZM32,43.8q0,0,0-.2,0,0-.2,0,0,0,0,.2,0,0,.2,0ZM32.1,76.2c0,0,.3-.1.3-.4.6-.4.9-.9,1-1.5.1-.1.3-.1.5-.2,0-.4.1-.7.4-.6.1-.3.2-.6.4-.8,0,0,.2,0,.3,0,.6-.4.6-1.8,1.4-1.8.8-1,1.4-1.9,2.2-2.8-.2-.1.2-.6-.1-.5-.2.3-.3.6-.8.8-1,2.1-2.8,3.5-4.1,5.5,0,0-.2,0-.2,0-.2.4-.4.9-.9,1,.2.4-.6.7-.2,1.1-.1.1,0,0,0,0ZM32.1,43.9,32.4,75.7h0c0,0,0,0,0,0ZM32.5,45.6c.2-.1,0,0,0,0-.1.1,0,0,0,0ZM32.8,43.3c0,.2.1.2.2.3-.1.1-.3.5-.5.3.3-.3,0-.5.3-.5ZM32.6,75.4,32.9,79.8c0,0-.2,0-.2,0,0,0,.1-.1.2-.3,0,0,0,.2,0,.2ZM32.9,44.1,32.9,45.4,33.1,43.8c0,.2.1.2.2.2,0-.2-.1-.1-.2-.2ZM34.3,76c0,0-.2.2-.4.2.1-.2.1-.3,0-.4-.1.3,0,.5-.1.7-.2.1-.4.4-.5.6.4-.2.6-.6.8-.9.2,0,.3,0,.4,0,.1-.3.4-.3.3-.6-.3,0-.1.3-.4.3.1-.3.4-.4.4-.7-.3.1,0-.3-.4-.2-.1.2-.3.4-.3.5.2,0,.1.1.1.3ZM33.3,44.1c0,0,0,.2,0,.3.4,0,.3-.3,0-.3ZM33.4,77.4c0,.2,0,.3.2.2,0-.2-.1-.1-.2-.2ZM34.2,78.4c0,.4-.1,1.1-.6,1.6.8.2.5-1.3,1.2-1.5-.1-.3.5-.6,0-.7-.2.3-.4.4-.2.6,0,0-.2,0-.3,0ZM33.8,44.6,33.8,78.9,33.9,73.8,34.1,46.1c0,0-.1.2-.1.3.3.1.4-.4.1-.3ZM34.1,44.9c.1-.1,0,0,0,0,0,0,0,0,0,0ZM34.1,74.2,34.1,45.2,34.1,47c0,0,.2,0,.2-.1,0,0-.2,0-.2.1ZM34.3,76.9c0,0,0,.2,0,.2.2.1.3-.4,0-.2ZM34.4,45.1c0,0,.2,0,.1-.1,0,0-.2,0-.1.1ZM34.7,74.2q0,0,0-.2h-.2q0,.1,0,.2h.2ZM34.6,79.5,34.8,49.6c0,.2-.3.5,0,.5,0-.2.3-.5,0-.5ZM34.6,74.9,34.7,46.4,34.8,76.2,34.8,74.5c0,0,.2,0,.1-.1,0,0-.2,0-.1.1ZM35.2,73c0,.2-.4.5-.2.6.1-.2.7-.5.2-.6ZM35.1,74,35.2,77.5,35.4,74.1,35.5,75.1,36,76.4c0,0,0,0-.2,0q0,0,0-.2c.2,0,.2.1.2.2ZM36.3,70.7c0,0,0,0-.1.1,0,0,0,0,.1-.1ZM36.4,75.2,36.7,74.9c-.2,0,0-.3.2-.3,0,0-.2.2-.2.3ZM37.1,73.1c-.1.1-.1.3-.3.5,0-.2.1-.2,0-.4,0,0,.2,0,.3,0ZM37.5,70.1c0,.2-.2.3-.3.4.4,0,.4-.3.3-.4ZM37.3,73.1q0,0,0-.2,0,0,0,0c.2,0,.2.4-.1.3ZM37.6,74.8q0,0,0,.2,0,0-.2,0,0,0,0-.2,0,0,.2,0ZM37.7,71.9c.1-.3.4.2.2.4-.4.2,0-.5-.2-.4ZM38,72.4s0,0,0,0q0,0,0,0ZM38,72.4,38.2,71.8c-.4,0-.2-.6.2-.4,0,.2-.3.2-.2.4ZM38.2,70.9,38.3,68.9,38.6,67.4c0,0,0,.2,0,.2.3.1.3-.4,0-.2ZM38.7,71,39.5,69.6c.3.1,0,.4.1.6-.5-.2-.4.7-.7.4,0-.4.4-.6.6-1.1ZM38.9,70.7,39.4,66.7,39.5,69.5,39.8,66.1q0,0,0-.2,0,0-.2,0,0,0,0,.2,0,0,.2,0ZM40,69.4c-.2,0-.1.1-.3.1-.2-.1.2-.4.1-.6.2,0,.1.3.2.4ZM40.7,64,41.2,65.6c0,0,.2,0,.1-.1,0,0-.2,0-.1.1ZM41.4,66.1c0,0,0,0,.2-.2,0,0,0,.2-.2.2ZM44,60.5,47.9,55.7" style="fill: #7bcb52; stroke-width: 0px;"/>
    <path d="M38.1,93.2q0,0,0,.2t-.2,0,0-.2.2,0ZM38.1,90.9c-.2,0,0-.2,0-.3.3,0,0,.2,0,.3ZM38,91.4,38.2,90.4,38.3,89.9q0,0,0,.2,0,0-.2,0v-.2q0,0,.1,0ZM38.3,90.7,81.6,36.8c.3.1.5.1.5.5,2,.4,3.3,1.6,3.6,3.8,0,.5-.2,1.1-.2,1.6-1.2,2.4-2.3,4.6-4.2,6.2-.3,0-.5.2-.5-.1-.8.6-1.6,1.8-2.6,2-.1.1-.3.3-.3.5-.3,0-.4,0-.5.3,0,0,0,0-.1-.1-.9,1.1-2.6,1.6-3.5,2.6-.8.3-1,0-1.5.4-.4-.6-1.6-.7-1.5-1.6,0-.3-.3-.1-.2-.4.4-.2.4-.8.7-1,0,0,0,0,.3,0,2-2.2,3.8-4.5,5.5-7,0,0-.1-.1,0-.3.4-.3.8-1.1.6-1.6-.8.2-2.1.8-2.9,1-3.2,1.8-7.1,4-9.8,6.8-1.8.8-2.4,2.4-3.9,3.4-.5.7-1.4,1.1-2.1,1.7-.3.4-.6,1-1.1,1.3,0,.3-.2.4-.3.8-1.6,1.4-2.6,3.2-3.7,4.9,1.7.2,4.7-.7,6.4-1.1.2,0,0,.2.2.2.3,0,.4-.2.6-.2-.1.3.3,0,.4.2,3-1,6.2-1.3,9-2,.2,0,.6.3.9,0,.6.4,1.6,0,2.3.3.3,0,.1-.3.4-.2.5.2.8.6,1.4.7.2-.3-.2-.2-.3-.5.4,0,.6.4.9.3-.1.3,0,.4.2.5.5-.5.6,0,1.1-.2,0,.6.6.4.9.7-.2.2-.7.1-.5.5,0,0,.2,0,.2.1.2-.1.2-.2.1-.3,0,0,.2,0,.1-.2.3.1.2.4.4.6.4,0,1.2.4.7,1.1,0,.2.2.1.4,0-.3.5,0,.7,0,1.1,0,0-.2,0-.1.1-.1.3.1.2.3.4,0,.2-.3.2-.2.4,0,.2,0,.4,0,.5-.2.3-.3.5-.3.9-.2.1-.3.4-.6.5-.4,1.4-1.3,2-2,3-.2,0-.1.1-.2,0-.4,1-1.5,1.5-2,2.5-3.2,3.1-6.3,6.3-9.7,9.1-5.1,4.7-10.6,9.5-16.9,12.9-.3,0,.1-.3,0-.4-.3,0-.5.3-.3.5-.7.2-1.4.4-2,.8-.2-.4-1.4.3-1.7.2.1-.3.2-.5.4-.7-.3-.1-.2.2-.3.2-.3,0-.2-.3-.5-.2-.2,0-.2.1-.2.3,0,0-.2,0-.3,0,0,0,0,.2.1.1-.6.7-1.3,0-1.6.3,0-.2-.1-.3-.4-.2,0-.2,0-.5.2-.5,0,0,0,0,.2,0,0,0-.1.3-.1.3.2,0,.3-.4.1-.3,0,0,0,0-.2,0,0-.2-.7-.3-.6.1-.2,0-.1-.2-.2-.4-.2,0-.2.1-.2.2-.3-.1.1-.3.1-.7-.4.4-.1.1-.5,0-.2.1.2.2,0,.5-.4.2,0-.6-.4-.4.3-.3-.2-.5.1-.7-.1-.2-.5-.3-.6-.1,0,.3.2,0,.2.1-.3.3,0,.4,0,.8-.2,0-.3.2-.4.3,0,0,0,0-.2,0,.1-.3.1-.8.2-1.2-.1-.3-.3-.7-.1-1.1-.6-.7,0-2.3.4-3.1-.1-.3.2-.8.5-.9,0,0-.1.2,0,.2,0-.6.6-1.2.3-1.6,0-.2,0-.2.1-.1,0-.2,0-.4-.2-.4.3-.5.6-.8.7-1.5.6-.6,1.3-1.4,1.4-2,.7-.9,1-1.6,1.6-2.8.2.2.4-.3.4-.6.4-.3.6-1.1,1-1.4.2-1.1,1.4-1.9,2.4-2.7,0-.2,0-.3,0-.5.5-.3,1.3-.6,1.2-1,.4-.2.7-.6.9-1,.3.3.4-.3.7-.5.2,0,0,.2,0,.3.3-.1.1-.3.2-.6,1.6-.9,2.8-2.4,4.2-3.5-1.2-.2-2.4.4-3.2.3,0,0,0-.2,0-.2-.6.5-1.3-.3-1.8.2,0,0,0,0,0-.2-1,.1-2.6-.6-3.4-1.3,0,0,.2,0,.2-.1,0-.4-.2-.4-.3-.6.2,0,.2.2.4.2.3-.5-.3-.6-.4-.8-.2.1-.2.4,0,.5-.2-.1-.5-.2-.7-.2.5-.4.6-.4.7-1-.2-.5-.6-.9-.5-1.7.5-.4.5-1,.6-1.5.1-.3.2-.5.6-.6-.2-.4.4-.7.1-1.1.6-.2.7-1.9,1.5-2,.3-.3.4-.7.6-.9,0,0-.2,0-.3,0,.7-.4.9-1.5,1.6-1.6,0,0,.1-.2.2-.3.3,0,.1.1,0,.3.3,0,.3-.5.8-.5-.4.9-1.1,1.6-1.3,2.5.4-.4,1-1.1,1-1.4.5-.3.6-.8,1.3-1-.5.8-1.5,1.5-1.8,2.3-.9.4-.7,1.6-1.6,2.1,0,.3,0,.2,0,.5.4,0,.4-.4.7-.5,0,0,0,.2,0,.3.7-.4.8-1.6,1.4-1.6.8-1.1,1.4-2.8,2.6-3.3.2-.8,1.1-.5,1.3-1.4.2,0,.3-.3.6-.3.2-1.2,1.7-1.8,2.3-2.8,0,0,0,0,.3,0,.1-.7.7-.9.8-1.5.7-.4,1.5-.6,1.9-1.4.2,0,.2,0,.4,0,0-.2-.1-.1-.3-.1.7-.5,1.1-1.4,1.9-1.8.4,0-.1.2,0,.4.5-.4.9-.8,1.4-1.4.3.1,0,.3,0,.6-.2,0-.2,0-.3,0,0,.2-.2.3-.2.5.5-.3.8-.6,1.1-1.1.2-.1.3,0,.4-.4.2,0,.4,0,.6-.1,0-.2,0-.2,0-.3-.2,0-.5.2-.7.3.2-.3.5-.4.8-.6.5.2,1.1-.4,1.6-.5-.7.1-1.6,0-2.1.8-.5,0-1,.3-1.2.6-.3,0,0,0,0-.2-.2,0-.2.1-.3.3-.3,0-.3.1-.5.2,0,.2.2.2,0,.4-.7,0-.9.5-1.5.9-.3,0,0-.2.2-.3-.4-.2-.5.3-1,.3-.3.3-.5.6-.7,1-1.5.8-2.1,2.3-4,2.7-.2.3,0,.3,0,.5-.4.4-.7.9-.9,1.4-.3.1-.7.1-.9.3-.3.2-.4.9-.9.6,1.5-1.7,2.6-3,4.2-4.7,0-.2-.6.1-.5-.2.2-.4.8-.5,1-.5,0-.3,0-.2,0-.6.7-.1,1.2-.6,1.3-1,.2,0,.1-.2.4-.2.9-1,2.3-1.7,3.2-2.7.6-.2,1.1-.9,1.6-1,0,.3-.4.2-.4.4.2.2.9-.8.8-.2,0-.5.4-.4.3-.9,2.2-1.6,4.8-3,7-4.3,0,0-.1.2,0,.2-.2.3-.6.4-1,.7,0,.4.5,0,.8,0,0-.2,0-.2,0-.4.5-.2.7-.6,1.1-.8,1,.1,2.2-.7,3.1-1.1,1.2.3,2.3.3,3.3.7,0,0,.1-.2.1-.3.4,0,.6.4,1.1.4-.1.3-.3.1-.4.6,0,.2.1-.2.4-.2,0,.2.6.4.8,0ZM38.5,90.9,38.8,89.1c-.1-.6.5-1.4.6-2.2.3.5-.5,1.5-.6,2.2ZM38.9,93.6c-.2.1,0,.5.2.2-.2,0-.1-.2-.2-.2ZM38.9,92.8c0,0,.2,0,.1-.1,0,0-.2,0-.1.1ZM39.1,90.6c-.1.3-.1.6.2.4-.1-.2,0-.5-.2-.4ZM39.1,89.3c.2,0,0,.4.2.2.1-.3-.2-.4-.2-.2ZM39.2,92.6c-.1.3.3,0,.2-.1,0,0-.2.1-.2.1ZM39.2,89.9c0,0,0,.2,0,.3.3,0,.1-.3,0-.3ZM39.6,90.5c-.1.3-.4.6-.2.8.2,0,.5-.8.2-.8ZM39.5,90.1c-.1.1-.2.5,0,.5,0-.2.2-.5,0-.5ZM39.4,86.8c.1-.2.1-.6.5-.6,0,.3-.1.6-.5.6ZM39.7,94q0,0,0,.2,0,0-.2,0t0-.2q0,0,.2,0ZM39.7,87.1q0,0,0-.2,0,0,.2-.1c.2,0,0,.4-.2.3ZM40,93c.3,0,.3-.5,0-.2-.2-.5.5-1,.2-1.5-.4.4-.8,1.3-.2,1.5,0,0,0,0,0,.2ZM39.9,93.7c0,0,0,0,.2,0,0,0-.2,0-.2,0ZM40.2,93.7,40.4,91.3c0-.2,0-.3.3-.4,0-.2,0-.3-.2-.3,0,.2,0,.2-.1.3,0,.2,0,.5,0,.5ZM40.5,87.1c0,.2,0,.2.2.2,0-.2,0-.2-.2-.2ZM41.1,84.2c-.3.8-.8,1.6-.6,2.2.3-.7.7-2,.6-2.2ZM40.5,90.4,40.6,94,40.8,89.7c0,.2-.2.3-.2.5.1-.1.4-.6.2-.5ZM40.9,94.7,41.9,87.9,42.4,94.8,42.9,94.5c-.3.1-.3.4,0,.2,0-.2,0-.2,0-.2ZM43.2,92.8,43.6,94.8c0,.2-.2,0-.3,0h0c.2-.1.2-.1.3,0ZM43.3,95.2c.1-.2.2,0,.5,0-.1.2-.7.4-.5,0ZM43.7,94.4q.1-.1.1-.2,0,0-.2,0,0,0-.1.2h.2ZM43.9,94.5,45.1,65.3c.1-.1.1-.3.4-.3,0,0-.1.3-.4.3ZM45.2,94.4,45.3,63.2,45.3,64.6,45.5,65.8c-.2,0-.1-.2-.2-.4.2,0,.3.1.2.4ZM57.4,68c0-.2,0-.3,0-.3,0,.2-.2.2-.3.4,0,0,0-.2,0-.2-.2,0-.2.2-.3.2,0,0,0,0,0-.2-.3,0-.5.2-.6.4,0-.2-.4,0-.7,0-1,1.3-2.3,2.9-3.4,3.9.2.3-.6.8-.5,1.1-.4.2-.5.6-.9.8-.4,1.6-1.9,2.4-2.3,3.8-.7.6-1,1.5-1.4,2.4.4,0,0,1,.4,1-.3.3-.8.9-.4,1,.6-.7.8-1.4,1.7-1.9-.4.8-.9,1.3-1.4,2.1.2.2.3-.5.6-.2-.1.3-.4.3-.5.7.6-.2.6-1.1,1.2-1.3-.1.2,0,0,.1.2-1.2,1.8-2.2,4.4-2.4,6.5,0,.2,0,.5.3.5,0,0,.2,0,.3,0,0,.2-.7,0-.7.6.2,0,.8-.6.8,0-.5-.3-.4.6-.8.5-.2.8.3.4,0,1,.3-.1.6-.4.9-.5,0-.2,0-.3,0-.5,2,0,3.7-2,5.4-3,.1-.3-.1-.2,0-.4.3-.5.9,0,1.1-.7,0,0,0,0,0-.2.8-.2,1.6-.9,2.3-1.5-.3,0-.4.2-.7.2-.3.7-1.1.8-1.5,1.3h0c-.7.5-1.5.9-2,1.5-1,.3-1.7,1.1-2.4,1.8,0,0,.1-.3.1-.3-.8.4-1.4,1.5-2.1,1,.9-.2,1.3-1.4,2.1-1.2-.2-.3.7-.4.8-.6,0,0,0-.4.2-.4,1.1-.5,1.9-.8,2.6-1.8-.2,0-.2-.2-.4-.2-1.6.8-2.6,2.2-4.1,2,.5-.2,0-.4.4-.6-.2,0-.4,0-.3-.4,1.5-.4,2.6-1.3,3.8-2.2,0,0,0-.2,0-.3.9-.5,2.1-.8,2.7-1.6.1-.3-.1-.2,0-.6,1.5-1.1,3-2.2,4.2-3.6-.3,0-.4.4-.4.2,1-1.3,2.7-2.1,3.6-3.5,3.6-3.3,7-6.7,9.8-10.7-3.9.7-7.9,1.9-11.8,3.1,0-.2-.1-.2-.2-.2-.3.6-1.2.4-1.9.5,0,.2.1.2,0,.2-.3-.2-.6.4-.9.2,0,0,.2,0,.3,0ZM46.5,64.2c-.4.2.2-.7-.4-.6-.4.3-.2.5-.2.9.2-.2.5,0,.5-.3ZM46.1,63.1c0,0-.1.3,0,.3,0,0,.1-.3,0-.3ZM46.2,66.4q0,0,0,0,0,0,0,0ZM46.8,60.2c-.3.2-.2.8-.7,1-.2-.3.4-.6.2-.9.2.1.2,0,.4,0ZM46.3,81.4c0,.2-.2.1-.2.4.2,0,.4-.3.2-.4ZM46.1,65.3c0,.2,0,.5.4.5,0-.3-.2-.4-.4-.5ZM46.2,67.1,46.5,83.2c0,0-.4.4,0,.4,0-.2.3-.4,0-.4ZM46.4,93.7,46.9,64.8c0,0-.2,0-.2,0,0,.2,0,.4.3.4,0,0,0-.4,0-.5ZM47.8,88.5c-.4.2-.6.6-1.1.4.4,0,.7-.4,1.1-.4ZM47,83.1c0,0,0-.2-.1-.2,0,0-.1.2-.1.3,0,0,.2,0,.2,0ZM46.9,82.7,47.1,67.5,47.4,74.3c0,0,0,0-.1.1,0,0,0,0,.1-.1ZM47.6,80.9c-.2,0,0-.2,0-.2.2,0,0,.2,0,.2ZM47.7,88.2,48.1,88.1,48.1,88.9,48.2,79.8,48.5,88.2c0,0,0,0-.1.1,0,0,0,0,.1-.1ZM48.7,67.6c0,.5.6.3,1,.4-.2-.4-.6-.3-1-.4ZM48.9,60.4,49.4,72.4,49.4,72.4,49.7,59.7h0c0-.2,0-.2.1-.3h0c0,.1,0,.2-.1.3ZM49.9,55.8c0,0-.2,0-.2,0q0,0,0-.2c.2,0,.2,0,.2.1ZM49.8,59.4,50.2,72.8c-.1.2-.4.2-.3.5.2,0,.4-.4.3-.5ZM49.9,60.9,49.9,87.2c.2-.5,1-.4,1.3-.9,0,.5-.8.7-1.3.9ZM50.3,56.1c0-.2,0-.2-.2-.2,0,0,0,.2,0,.2,0,0,.2,0,.2,0ZM50.4,74.9c0,0-.2,0-.2.1,0,0,.2,0,.2-.1ZM50.2,93.1,51.7,88.7c-.4,0-.7.3-.8.6.3-.1.6-.3.8-.6ZM51.4,55,51.7,86.4h-.3c0-.2.4-.2.3,0ZM53.2,54.4c-.2.4-.4.6-.6.7.1-.3.2-.6.6-.7ZM52.6,55.1,53.4,52c-.1.1-.3.2-.5.3.1-.3.3-.2.4-.5,0,0,.2,0,.1.2ZM53.3,83.1c0-.2.2-.2.4-.2,0,.2-.2.2-.4.2ZM53.4,88.8,53.6,51.8c0,0,0-.2,0-.2.2-.2.3-.4.6-.4-.2.2-.2.5-.6.6ZM53.8,82.7c.2,0,0,.2-.1.2-.1-.3,0,0,.1-.2ZM54.2,50.7q0,0,0,.2c-.2,0-.2.2-.5.2,0-.2.3-.2.3-.4,0,0,0,0,.2,0ZM53.9,54.4c-.2,0,0-.3.2-.3,0,0-.2.2-.2.3ZM53.8,86.4c0,0,0,0,.2,0,0,0-.2,0-.2,0ZM54.1,53.9c-.2,0,0-.4-.3-.2.1-.3.3-.5.6-.6-.2.2-.3.5-.4.8ZM54.3,51.8c.2.1.3-.3.1-.3q0,0,0,0,0,0,0,.2ZM54.4,53.7,54.4,50.8c.1-.2.3-.4.5-.5,0,.4-.3.4-.5.5ZM54.6,52.9,55,52.5c0,0-.2.1-.3.1,0,0,.2-.1.3-.1ZM55,49.7c0-.3.4-.3.4,0-.3,0-.2,0-.4,0ZM55.1,52.4,55.3,52.2,55.4,52,55.4,50.9,55.5,49.3,55.7,88.2,55.8,49.4c.1-.2.3-.5.5-.3-.2.1-.4.3-.5.3ZM56,51.9c0,0,.2,0,.2-.2.3,0-.2.4-.2.2ZM59.1,82c.3-.3.6-.6.9-.9.1-.3.9-.8.6-.9-1.5,1.5-3.3,2.5-4.6,4.1,1-.4,1.9-2,3-2.3ZM56.2,51.5c0-.2,0-.4.3-.5,0,.2-.2.4-.3.5ZM56.4,49c-.2,0-.2,0-.2-.2,0,0,.2,0,.2.2ZM56.3,48.3,56.4,68.1,56.5,48.4,56.7,68.2c0,0,0,0,0-.2,0,0,0,0,0,.2ZM57.1,50.9c0,0-.1.1-.2.1,0,0,.1-.1.2-.1ZM57.5,80c0,.2-.3.1-.2.3.2,0,.4-.3.2-.3ZM58.3,78.8c-.3,0-.5.3-.8.5,0-.4.6-.4.6-.7,0,0,.1.1.1.2ZM57.6,47.7c0,.2-.3.4,0,.4.1-.2.3-.4,0-.4ZM57.6,67.5,57.7,48.7c-.1.2.2.2.3,0,0,0,0,0-.3,0ZM57.8,49.9,59.1,49.8c-.2.2-.7.4-.8.8.4,0,.9-.5.8-.8ZM58.5,67.7c0,0-.1.1-.2.1,0,0,.1-.1.2-.1ZM58.3,49.5,58.8,49c0-.2.1-.2.2-.4.2,0,0,.4-.2.4ZM59.2,46.2c0,0,0,0,.2,0,0,0-.2,0-.2,0ZM59.3,48.7c0,0,0-.2,0-.2.2-.1.1.3,0,.2ZM59.9,46.8c0,0-.2,0-.2,0,0,.2,0,.2-.1.3.2,0,.4-.2.4-.4ZM59.6,67.2c0,0,.2,0,.1-.1,0,0-.2,0-.1.1ZM60.1,47.2c.1-.2.3-.4.5-.2-.1.1-.3.2-.5.2ZM60.2,67.1,61.7,44.4c-.6.4-1.2.6-1.4,1.1.5,0,1.1-.5,1.4-1.1ZM60.3,66.8,60.6,46.8c0-.2.4-.4.5-.2-.1.1-.3.2-.5.2ZM62.2,66.5c0,0,.2,0,.2-.1,0,0-.2,0-.2.1ZM62.6,78.6c0,0-.4.3-.1.3,0,0,.1-.2.1-.3ZM62.9,46.4c0,0,.2,0,.1-.1,0,0-.2,0-.1.1ZM62.9,43,63.1,43.3q0,0,0,0,0,0,.2,0,0,0,.1-.1,0,0,0-.2,0,0,0,0,0,0-.2,0,0,0,0,0,0,0,0,.2ZM63.4,45.1c0,0-.2,0-.2,0q0,0,0-.2c.2,0,.2,0,.3.1ZM63.4,44.8,63.7,61.6,63.8,42.8c0,0,.2-.2.2-.3,0,0-.2,0-.2,0q0,0,0,.2,0,0,0,0ZM63.9,65.9c0,0,.2,0,.1-.1,0,0-.2,0-.1.1ZM64.8,41.7c0,.2-.1.2-.2.2,0,0,0,0,0-.2q0,0,.2,0ZM66,41.7c-.1-.1-.4,0-.5,0-.2.3.5.1.5,0ZM67.7,40.8c0,0,0-.3-.2-.2-.4.7-1.1.5-1.3,1,.6-.3,1.2-.2,1.5-.8ZM67.4,40.3c-.5,0-.7.4-.9.5.3,0,.7-.1.9-.5ZM66.8,78c0,0,0,0,.2,0,0,0-.2,0-.2,0ZM69.2,40c0-.3.2-.3.2-.5-.7.4-1.2.7-1.7,1.1.5.1.9-.6,1.4-.6ZM68.3,42.3q0,0-.2,0c0,0-.1.1-.2.2,0,0,.2,0,.4-.2ZM68.6,39.5c.2,0,.2,0,.2-.2-.2,0-.2.1-.2.2-.3,0-.1.3,0,0ZM68.9,42.1,70.8,39c-.2-.3-1,.3-1,.5.4-.3.8,0,1-.5ZM71.8,36.6c0-.2.1-.2.4-.2,0,0-.2.1-.4.2ZM73.1,37.6c-.2,0-.8,0-.7.3,0,0,.2,0,.3,0-.4.3-.5.3-.6.7.4,0,1.3-.6,1.5-.8-.2,0-.5.2-.8.3.1-.3.5-.2.4-.5ZM72.5,36.8c0,0,0,.2-.2.2,0,0,0-.2.2-.2ZM72.7,37.3c-.2,0-.3,0-.4.3.2,0,.3,0,.4-.3ZM72.4,38.3c0,0,.1-.2.3-.2,0,.2-.1.2-.3.2ZM72.4,38.3,73.4,37.5c0-.2-.1-.1-.3-.1v.2c.1,0,.2,0,.3,0ZM73.7,37.6c-.1.1,0,0,0,0q0,0,0,0c.3.3.9-.2,1.3,0,.2-.1.6-.4.4-.6-.5.6-1.3.2-1.7.6q0,0,0,0ZM73.7,38.7c0,0,.2,0,.2-.1,0,0-.2,0-.2.1ZM75.2,70.6v-.2q-.1,0-.2,0v.2q.1,0,.2,0ZM75,59.4,75.9,66.9c0,0,.2,0,.1-.1,0,0-.2,0-.1.1ZM76.6,60.5c-.2.4.2.3.5.2,0-.3-.2-.2-.5-.2ZM76.6,61.3,76.8,37.1c-.2.4.3.3.4,0,0,0-.3,0-.4,0ZM77.2,61.2c0,0,0,0,.2,0,0,0-.2,0-.2,0ZM77.3,60.6,77.5,36.4,77.6,60.8,77.7,60.2c-.3,0,.1-.3,0-.5.2,0-.1.3,0,.5ZM77.8,60.3,77.8,36.5c0,0,0,.2,0,.2.3,0,.3-.4,0-.2ZM78,61.1,78.1,61.4,78.5,62.8,78.9,61.9,79,62.5,79.3,63.8,79.4,35.8,79.5,62.5,79.6,36.8,79.6,63.9,80.2,36.6q0,0,.1-.1c-.2,0-.2-.1-.3-.1,0,0,0,.2,0,.2h.2ZM80.8,36.5c.3-.1.2.1.4,0-.1.3-.2,0-.3,0q0,0,0-.2ZM82.3,42.5,83.2,38.8" style="fill: #7bcb52; stroke-width: 0px;"/>
    <path d="M79,85.4q0,0,0,.2t-.2,0,0-.2h.2ZM79,83.1c-.2,0,0-.2,0-.3.3,0,0,.2,0,.3ZM78.9,83.7,79.1,82.6,79.2,82.2q0,0,0,.2,0,0-.2,0,0,0,0-.2h.2ZM79.2,82.9,122.5,29.1c.3.1.5.1.5.5,2,.4,3.3,1.6,3.6,3.8,0,.5-.2,1.1-.2,1.6-1.2,2.4-2.3,4.6-4.2,6.2-.3,0-.5.2-.5-.1-.8.6-1.6,1.8-2.6,2-.1.1-.3.3-.3.5-.3,0-.4,0-.5.3,0,0,0,0-.1-.1-.9,1.1-2.6,1.6-3.5,2.6-.8.3-1,0-1.5.4-.4-.6-1.6-.7-1.5-1.6,0-.3-.3-.1-.2-.4.4-.2.4-.8.7-1,0,0,0,0,.3,0,2-2.2,3.8-4.5,5.5-7,0,0-.1-.1,0-.3.4-.3.8-1.1.6-1.6-.8.2-2.1.8-2.9,1-3.2,1.8-7.1,4-9.8,6.8-1.8.8-2.4,2.4-3.9,3.4-.5.7-1.4,1.1-2.1,1.7-.3.4-.6,1-1.1,1.3,0,.3-.2.4-.3.8-1.6,1.4-2.6,3.2-3.7,4.9,1.7.2,4.7-.7,6.4-1.1.2,0,0,.2.2.2.3,0,.4-.2.6-.2-.1.3.3,0,.4.2,3-1,6.2-1.3,9-2,.2,0,.6.3.9,0,.6.4,1.6,0,2.3.3.3,0,.1-.3.4-.2.5.2.8.6,1.4.7.2-.3-.2-.2-.3-.5.4,0,.6.4.9.3-.1.3,0,.4.2.5.5-.5.6,0,1.1-.2,0,.6.6.4.9.7-.2.2-.7.1-.5.5,0,0,.2,0,.2.1.2-.1.2-.2.1-.3,0,0,.2,0,.1-.2.3.1.3.4.4.6.4,0,1.2.4.7,1.1,0,.2.2.1.4,0-.3.5,0,.7,0,1.1,0,0-.2,0-.1.1-.1.3.1.2.3.4,0,.2-.3.2-.2.4,0,.2,0,.4,0,.5-.2.3-.3.5-.3.9-.2.1-.3.4-.6.5-.4,1.4-1.3,2-2,3-.2,0-.1.1-.2,0-.4,1-1.5,1.5-2,2.5-3.2,3.1-6.3,6.3-9.7,9.1-5.1,4.7-10.6,9.5-16.9,12.9-.3,0,.1-.3,0-.4-.3,0-.5.3-.3.5-.7.2-1.4.4-2,.8-.2-.4-1.4.3-1.7.2.1-.3.2-.5.4-.7-.3-.1-.2.2-.3.2-.3,0-.2-.3-.5-.2-.2,0-.2.1-.2.3,0,0-.2,0-.3,0,0,0,0,.2.1.1-.6.7-1.3,0-1.6.3,0-.2-.1-.3-.4-.2,0-.2,0-.5.2-.5,0,0,0,0,.2,0,0,0-.1.3-.1.3.2,0,.3-.4.1-.3,0,0,0,0-.2,0,0-.2-.7-.3-.6.1-.2,0-.1-.2-.2-.4-.2,0-.2.1-.2.2-.3-.1.1-.3.1-.7-.4.4-.1.1-.5,0-.2.1.2.2,0,.5-.4.2,0-.6-.4-.4.3-.3-.2-.5.1-.7-.1-.2-.5-.3-.6-.1,0,.3.2,0,.2.1-.3.3,0,.4,0,.8-.2,0-.3.2-.4.3,0,0,0,0-.2,0,.1-.3.1-.8.2-1.2-.1-.3-.3-.7-.1-1.1-.6-.7,0-2.3.4-3.1-.1-.3.2-.8.5-.9,0,0-.1.2,0,.2,0-.6.6-1.2.3-1.6,0-.2,0-.2.1-.1,0-.2,0-.4-.2-.4.3-.5.6-.8.7-1.5.6-.6,1.3-1.4,1.4-2,.7-.9,1-1.6,1.6-2.8.2.2.4-.3.4-.6.4-.3.6-1.1,1-1.4.2-1.1,1.4-1.9,2.4-2.7,0-.2,0-.3,0-.5.5-.3,1.3-.6,1.2-1,.4-.2.7-.6.9-1,.3.3.4-.3.7-.5.2,0,0,.2,0,.3.3-.1.1-.3.2-.6,1.6-.9,2.8-2.4,4.2-3.5-1.2-.2-2.4.4-3.2.3,0,0,0-.2,0-.2-.6.5-1.3-.3-1.8.2,0,0,0,0,0-.2-1,.1-2.6-.6-3.4-1.3,0,0,.2,0,.2-.1,0-.4-.2-.4-.3-.6.2,0,.2.2.4.2.3-.5-.3-.6-.4-.8-.2.1-.2.4,0,.5-.2-.1-.5-.2-.7-.2.5-.4.6-.4.7-1-.2-.5-.6-.9-.5-1.7.5-.4.5-1,.6-1.5.1-.3.2-.5.6-.6-.2-.4.4-.7.1-1.1.6-.2.7-1.9,1.5-2,.3-.3.4-.7.6-.9,0,0-.2,0-.3,0,.7-.4.9-1.5,1.6-1.6,0,0,.1-.2.2-.3.3,0,.1.1,0,.3.3,0,.3-.5.8-.5-.4.9-1.1,1.6-1.3,2.5.4-.4,1-1.1,1-1.4.5-.3.6-.8,1.3-1-.5.8-1.5,1.5-1.8,2.3-.9.4-.7,1.6-1.6,2.1,0,.3,0,.2,0,.5.4,0,.4-.4.7-.5,0,0,0,.2,0,.3.7-.4.8-1.6,1.4-1.6.8-1.1,1.4-2.8,2.6-3.3.2-.8,1.1-.5,1.3-1.4.2,0,.3-.3.6-.3.2-1.2,1.7-1.8,2.3-2.8,0,0,0,0,.3,0,.1-.7.7-.9.8-1.5.7-.4,1.5-.6,1.9-1.4.2,0,.2,0,.4,0,0-.2-.1-.1-.3-.1.7-.5,1.1-1.4,1.9-1.8.4,0-.1.2,0,.4.5-.4.9-.8,1.4-1.4.3.1,0,.3,0,.6-.2,0-.2,0-.3,0,0,.2-.2.3-.2.5.5-.3.8-.6,1.1-1.1.2-.1.3,0,.4-.4.2,0,.4,0,.6-.1,0-.2,0-.2,0-.3-.2,0-.5.2-.7.3.2-.3.5-.4.8-.6.5.2,1.1-.4,1.6-.5-.7.1-1.6,0-2.1.8-.5,0-1,.3-1.2.6-.3,0,0,0,0-.2-.2,0-.2.1-.3.3-.3,0-.3.1-.5.2,0,.2.2.2,0,.4-.7,0-.9.5-1.5.9-.3,0,0-.2.2-.3-.4-.2-.5.3-1,.3-.3.3-.5.6-.7,1-1.5.8-2.1,2.3-4,2.7-.2.3,0,.3,0,.5-.4.4-.7.9-.9,1.4-.3.1-.7.1-.9.3-.3.2-.4.9-.9.6,1.5-1.7,2.6-3,4.2-4.7,0-.2-.6.1-.5-.2.2-.4.8-.5,1-.5,0-.3,0-.2,0-.6.7-.1,1.2-.6,1.3-1,.2,0,.1-.2.4-.2.9-1,2.3-1.7,3.2-2.7.6-.2,1.1-.9,1.6-1,0,.3-.4.2-.4.4.2.2.9-.8.8-.2,0-.5.4-.4.3-.9,2.2-1.6,4.8-3,7-4.3,0,0-.1.2,0,.2-.2.3-.6.4-1,.7,0,.4.5,0,.8,0,0-.2,0-.2,0-.4.5-.2.7-.6,1.1-.8,1,.1,2.2-.7,3.1-1.1,1.2.3,2.3.3,3.3.7,0,0,.1-.2.1-.3.4,0,.6.4,1.1.4-.1.3-.3.1-.4.6,0,.2.1-.2.4-.2,0,.2.6.4.8,0ZM79.4,83.2,79.7,81.4c-.1-.6.5-1.4.6-2.2.3.5-.5,1.5-.6,2.2ZM79.8,85.8c-.2.1,0,.5.2.2-.2,0-.1-.2-.2-.2ZM79.8,85.1c0,0,.2,0,.1-.1,0,0-.2,0-.1.1ZM80,82.9c-.1.3-.1.6.2.4-.1-.2,0-.5-.2-.4ZM80,81.6c.2,0,0,.4.2.2.1-.3-.2-.4-.2-.2ZM80.1,84.8c-.1.3.3,0,.2-.1,0,0-.2.1-.2.1ZM80.1,82.1c0,0,0,.2,0,.3.3,0,.1-.3,0-.3ZM80.5,82.8c-.1.3-.4.6-.2.8.2,0,.5-.8.2-.8ZM80.4,82.4c-.1.1-.2.5,0,.5,0-.2.2-.5,0-.5ZM80.3,79.1c.1-.2.1-.6.5-.6,0,.3-.1.6-.5.6ZM80.6,86.2q0,0,0,.2h-.2s0,0,0-.1q0,0,.2,0ZM80.6,79.4v-.2q0,0,.2-.1c.2,0,0,.4-.2.3ZM80.9,85.3c.3,0,.3-.5,0-.2-.2-.5.5-1,.2-1.5-.4.4-.8,1.3-.2,1.5,0,0,0,0,0,.2ZM80.8,86c0,0,0,0,.2,0,0,0-.2,0-.2,0ZM81.1,86,81.3,83.6c0-.2,0-.3.3-.4,0-.2,0-.3-.2-.3,0,.2,0,.2-.1.3,0,.2,0,.5,0,.5ZM81.4,79.3c0,.2,0,.2.2.2,0-.2,0-.2-.2-.2ZM82.1,76.5c-.3.8-.8,1.6-.6,2.2.3-.7.7-2,.6-2.2ZM81.5,82.7,81.5,86.2,81.7,82c0,.2-.2.3-.2.5.1-.1.4-.6.2-.5ZM81.8,87,82.8,80.2,83.3,87.1,83.8,86.7c-.3.1-.3.4,0,.2,0-.2,0-.2,0-.2ZM84.1,85,84.5,87.1c0,.2-.2,0-.3,0h0c.2-.1.2-.1.3,0ZM84.2,87.5c.1-.2.2,0,.5,0-.1.2-.7.4-.5,0ZM84.6,86.7q.1-.1.1-.2,0,0-.2,0,0,0-.1.2h.2ZM84.9,86.8,86,57.6c.1-.1.1-.3.4-.3,0,0-.1.3-.4.3ZM86.1,86.6,86.2,55.5,86.2,56.9,86.5,58c-.2,0-.1-.2-.2-.4.2,0,.3.1.2.4ZM98.3,60.3c0-.2,0-.3,0-.3,0,.2-.2.2-.3.4,0,0,0-.2,0-.2-.2,0-.2.2-.3.2,0,0,0,0,0-.2-.3,0-.5.2-.6.4,0-.2-.4,0-.7,0-1,1.3-2.3,2.9-3.4,3.9.2.3-.6.8-.5,1.1-.4.2-.5.6-.9.8-.4,1.6-1.9,2.4-2.3,3.8-.7.6-1,1.5-1.4,2.4.4,0,0,1,.4,1-.3.3-.8.9-.4,1,.6-.7.8-1.4,1.7-1.9-.4.8-.9,1.3-1.4,2.1.2.2.3-.5.6-.2-.1.3-.4.3-.5.7.6-.2.6-1.1,1.2-1.3-.1.2,0,0,.1.2-1.2,1.8-2.2,4.4-2.4,6.5,0,.2,0,.5.3.5,0,0,.2,0,.3,0,0,.2-.7,0-.7.6.2,0,.8-.6.8,0-.5-.3-.4.6-.8.5-.2.8.3.4,0,1,.3-.1.6-.4.9-.5,0-.2,0-.3,0-.5,2,0,3.7-2,5.4-3,.1-.3-.1-.2,0-.4.3-.5.9,0,1.1-.7,0,0,0,0,0-.2.8-.2,1.6-.9,2.3-1.5-.3,0-.4.2-.7.2-.3.7-1.1.8-1.5,1.3h0c-.7.5-1.5.9-2,1.5-1,.3-1.7,1.1-2.4,1.8,0,0,.1-.3.1-.3-.8.4-1.4,1.5-2.1,1,.9-.2,1.3-1.4,2.1-1.2-.2-.3.7-.4.8-.6,0,0,0-.4.2-.4,1.1-.5,1.9-.8,2.6-1.8-.2,0-.2-.2-.4-.2-1.5.8-2.6,2.2-4.1,2,.5-.2,0-.4.4-.6-.2,0-.4,0-.3-.4,1.5-.4,2.6-1.3,3.8-2.2,0,0,0-.2,0-.3.9-.5,2.1-.8,2.7-1.6.1-.3-.1-.2,0-.6,1.5-1.1,3-2.2,4.2-3.6-.3,0-.4.4-.4.2,1-1.3,2.7-2.1,3.6-3.5,3.6-3.3,7-6.7,9.8-10.7-3.9.7-7.9,1.9-11.8,3.1,0-.2-.1-.2-.2-.2-.3.6-1.2.4-1.9.5,0,.2.1.2,0,.2-.3-.2-.6.4-.9.2,0,0,.2,0,.3,0ZM87.4,56.4c-.4.2.2-.7-.4-.6-.4.3-.2.5-.2.9.2-.2.5,0,.5-.3ZM87,55.4c0,0-.1.3,0,.3,0,0,.1-.3,0-.3ZM87.1,58.6q0,0,0,0,0,0,0,0ZM87.7,52.5c-.3.2-.2.8-.7,1-.2-.3.4-.6.2-.9.2.1.2,0,.4,0ZM87.2,73.7c0,.2-.2.1-.2.4.2,0,.4-.3.2-.4ZM87.1,57.6c0,.2,0,.5.4.5,0-.3-.2-.4-.4-.5ZM87.1,59.3,87.4,75.5c0,0-.4.4,0,.4,0-.2.3-.4,0-.4ZM87.3,86,87.8,57.1c0,0-.2,0-.2,0,0,.2,0,.4.2.4,0,0,0-.4,0-.5ZM88.7,80.7c-.4.2-.6.6-1.1.4.4,0,.7-.4,1.1-.4ZM88,75.4c0,0,0-.2-.1-.2,0,0-.1.2-.1.3h.2ZM87.8,75,88.1,59.7,88.3,66.6c0,0,0,0-.1.1,0,0,0,0,.1-.1ZM88.5,73.2c-.2,0,0-.2,0-.2.2,0,0,.2,0,.2ZM88.7,80.4,89,80.4,89,81.2,89.1,72.1,89.4,80.4c0,0,0,0-.1.1,0,0,0,0,.1-.1ZM89.6,59.9c0,.5.6.3,1,.4-.2-.4-.6-.3-1-.4ZM89.8,52.7,90.3,64.7,90.3,64.7,90.6,52h0c0-.2,0-.2.1-.3h0c0,.1,0,.2-.1.3ZM90.8,48.1c0,0-.2,0-.2,0q0,0,0-.2c.2,0,.2,0,.2.1ZM90.7,51.7,91.1,65c-.1.2-.4.2-.3.5.2,0,.4-.4.3-.5ZM90.8,53.2,90.8,79.5c.2-.5,1-.4,1.3-.9,0,.5-.8.7-1.3.9ZM91.3,48.4c0-.2,0-.2-.2-.2,0,0,0,.2,0,.2,0,0,.2,0,.2,0ZM91.3,67.1c0,0-.2,0-.2.1,0,0,.2,0,.2-.1ZM91.1,85.4,92.7,81c-.4,0-.7.3-.8.6.3-.1.6-.3.8-.6ZM92.3,47.3,92.6,78.6h-.3c0-.2.4-.2.3,0ZM94.1,46.7c-.2.4-.4.6-.6.7.1-.3.2-.6.6-.7ZM93.5,47.3,94.3,44.2c-.1.1-.3.2-.5.3.1-.3.3-.2.4-.5,0,0,.2,0,.1.2ZM94.2,75.4c0-.2.2-.2.4-.2,0,.2-.2.2-.4.2ZM94.3,81.1,94.5,44c0,0,0-.2,0-.2.2-.2.3-.4.6-.4-.2.2-.2.5-.6.6ZM94.7,75c.2,0,0,.2-.1.2-.1-.3,0,0,.1-.2ZM95.1,43q0,0,0,.2c-.2,0-.2.2-.5.2,0-.2.3-.2.3-.4,0,0,0,0,.2,0ZM94.8,46.7c-.2,0,0-.3.2-.3,0,0-.2.2-.2.3ZM94.8,78.6c0,0,0,0,.2,0,0,0-.2,0-.2,0ZM95.1,46.2c-.2,0,0-.4-.3-.2.1-.3.3-.5.6-.6-.2.2-.3.5-.4.8ZM95.3,44.1c.2.1.3-.3.1-.3q0,0,0,0,0,0,0,.2ZM95.3,46,95.3,43.1c.1-.2.3-.4.5-.5,0,.4-.3.4-.5.5ZM95.5,45.2,95.9,44.7c0,0-.2.1-.3.1,0,0,.2-.1.3-.1ZM96,41.9c0-.3.4-.3.4,0-.3,0-.2,0-.4,0ZM96,44.7,96.2,44.5,96.3,44.3,96.4,43.1,96.4,41.5,96.6,80.5,96.7,41.7c.1-.2.3-.5.5-.3-.2.1-.4.3-.5.3ZM96.9,44.1c0,0,.2,0,.2-.2.3,0-.2.4-.2.2ZM100,74.2c.3-.3.6-.6.9-.9.1-.3.9-.8.6-.9-1.5,1.5-3.3,2.5-4.6,4.1,1-.4,1.9-2,3-2.3ZM97.1,43.8c0-.2,0-.4.3-.5,0,.2-.2.4-.3.5ZM97.4,41.3c-.2,0-.2,0-.2-.2,0,0,.2,0,.2.2ZM97.2,40.6,97.3,60.4,97.4,40.6,97.6,60.5c0,0,0,0,0-.2,0,0,0,0,0,.2ZM98,43.2c0,0-.1.1-.2.1,0,0,.1-.1.2-.1ZM98.4,72.2c0,.2-.3.1-.2.3.2,0,.4-.3.2-.3ZM99.2,71.1c-.3,0-.5.3-.8.5,0-.4.6-.4.6-.7,0,0,.1.1.1.2ZM98.6,39.9c0,.2-.3.4,0,.4.1-.2.3-.4,0-.4ZM98.5,59.7,98.7,41c-.1.2.2.2.3,0,0,0,0,0-.3,0ZM98.7,42.2,100,42.1c-.2.2-.7.4-.8.8.4,0,.9-.5.8-.8ZM99.5,60c0,0-.1.1-.2.1,0,0,.1-.1.2-.1ZM99.2,41.8,99.7,41.3c0-.2.1-.2.2-.4.2,0,0,.4-.2.4ZM100.1,38.5c0,0,0,0,.2,0,0,0-.2,0-.2,0ZM100.2,41c0,0,0-.2,0-.2.2-.1.1.3,0,.2ZM100.9,39.1c0,0-.2,0-.2,0,0,.2,0,.2-.1.3.2,0,.4-.2.4-.4ZM100.6,59.5c0,0,.2,0,.1-.1,0,0-.2,0-.1.1ZM101,39.5c.1-.2.3-.4.5-.2-.1.1-.3.2-.5.2ZM101.1,59.4,102.6,36.7c-.6.4-1.2.6-1.4,1.1.5,0,1.1-.5,1.4-1.1ZM101.2,59.1,101.5,39.1c0-.2.4-.4.5-.2-.1.1-.3.2-.5.2ZM103.1,58.8c0,0,.2,0,.2-.1,0,0-.2,0-.2.1ZM103.5,70.9c0,0-.4.3-.1.3,0,0,.1-.2.1-.3ZM103.8,38.6c0,0,.2,0,.1-.1,0,0-.2,0-.1.1ZM103.9,35.3,104,35.6q0,0,0,0,0,0,.2,0,0,0,.1-.1,0,0,0-.2,0,0,0,0,0,0-.2,0,0,0,0,0,0,0,0,.2ZM104.3,37.3c0,0-.2,0-.2,0q0,0,0-.2c.2,0,.2,0,.3.1ZM104.3,37,104.6,53.9,104.8,35.1c0,0,.2-.2.2-.3,0,0-.2,0-.2,0q0,0,0,.2,0,0,0,0ZM104.8,58.2c0,0,.2,0,.1-.1,0,0-.2,0-.1.1ZM105.7,34c0,.2-.1.2-.2.2,0,0,0,0,0-.2q0,0,.2,0ZM106.9,34c-.1-.1-.4,0-.5,0-.2.3.5.1.5,0ZM108.6,33c0,0,0-.3-.2-.2-.4.7-1.1.5-1.3,1,.6-.3,1.2-.2,1.5-.8ZM108.3,32.5c-.5,0-.7.4-.9.5.3,0,.7-.1.9-.5ZM107.8,70.3c0,0,0,0,.2,0,0,0-.2,0-.2,0ZM110.2,32.3c0-.3.2-.3.2-.5-.7.4-1.2.7-1.7,1.1.5.1.9-.6,1.4-.6ZM109.2,34.6q0,0-.2,0c0,0-.1.1-.2.2,0,0,.2,0,.4-.2ZM109.6,31.7c.2,0,.2,0,.2-.2-.2,0-.2.1-.2.2-.3,0-.1.3,0,0ZM109.8,34.4,111.7,31.3c-.2-.3-1,.3-1,.5.4-.3.8,0,1-.5ZM112.7,28.8c0-.2.1-.2.4-.2,0,0-.2.1-.4.2ZM114,29.9c-.2,0-.8,0-.7.3,0,0,.2,0,.3,0-.4.3-.5.3-.6.7.4,0,1.3-.6,1.5-.8-.2,0-.5.2-.8.3.1-.3.5-.2.4-.5ZM113.4,29.1c0,0,0,.2-.2.2,0,0,0-.2.2-.2ZM113.6,29.6c-.2,0-.3,0-.4.3.2,0,.3,0,.4-.3ZM113.3,30.6c0,0,.1-.2.3-.2,0,.2-.1.2-.3.2ZM113.3,30.6,114.4,29.8c0-.2-.1-.1-.3-.1v.2c.1,0,.2,0,.3,0ZM114.6,29.8c-.1.1,0,0,0,0q0,0,0,0c.3.3.9-.2,1.3,0,.2-.1.6-.4.4-.6-.5.6-1.3.2-1.7.6q0,0,0,0ZM114.6,31c0,0,.2,0,.2-.1,0,0-.2,0-.2.1ZM116.1,62.9v-.2q-.1,0-.2,0v.2q.1,0,.2,0ZM115.9,51.7,116.8,59.1c0,0,.2,0,.1-.1,0,0-.2,0-.1.1ZM117.5,52.8c-.2.4.2.3.5.2,0-.3-.2-.2-.5-.2ZM117.5,53.5,117.7,29.3c-.2.4.3.3.4,0,0,0-.3,0-.4,0ZM118.1,53.5c0,0,0,0,.2,0,0,0-.2,0-.2,0ZM118.2,52.8,118.5,28.6,118.5,53.1,118.6,52.4c-.3,0,.1-.3,0-.5.2,0-.1.3,0,.5ZM118.7,52.6,118.7,28.8c0,0,0,.2,0,.2.3,0,.3-.4,0-.2ZM118.9,53.3,119,53.7,119.5,55.1,119.8,54.2,119.9,54.8,120.2,56,120.3,28.1,120.4,54.7,120.5,29.1,120.5,56.1,121.1,28.8q0,0,.1-.1c-.2,0-.2-.1-.3-.1,0,0,0,.2,0,.2h.2ZM121.7,28.8c.3-.1.2.1.4,0-.1.3-.2,0-.3,0q0,0,0-.2ZM123.2,34.7,124.1,31.1" style="fill: #7bcb52; stroke-width: 0px;"/>
  </g>
  </g>
</svg>