<?xml version="1.0" encoding="UTF-8"?>
<svg id="Layer_1" xmlns="http://www.w3.org/2000/svg" version="1.1" viewBox="0 0 128 128">
  <g id="icon" fill="currentColor">
  <path d="M109.7,7c-2.2-4.4-7.5-6.2-11.8-4l-18.2,9-9.5,4.7c-.5-1.1-1.9-1.5-2.9-1l-4,2c-1.1.5-1.5,1.9-1,3l7.8,15.8c.5,1.1,1.9,1.5,3,1l4-2c1.1-.5,1.5-1.9,1-3l27.7-13.7c1.2-.6,2.2-1.4,3-2.4,2.1-2.6,2.6-6.3,1-9.4h0ZM105.2,13.7c-.4.5-.9.9-1.5,1.2l-3,1.5c-3-.3-5.9-1.1-8.3-2.5-1.1-.7-2.3-1.1-3.6-1.5l10.9-5.4c.6-.3,1.3-.5,2-.5,1.7,0,3.2.9,4,2.4.8,1.5.6,3.4-.5,4.7h0Z"/>
  <path d="M74,59.3h-9.2c0,1,.1,1.9.3,2.9,0,.5.2,1,.2,1.5h8.7c.9,0,1.7.8,1.7,1.7v19.6c-3.2.7-7,1.2-11.5,1-.3,0-.6,0-.9,0,.2-2.1.5-7.4-1.1-14.6-.6-2.8-1.1-6-1.5-8.4-.4-2.5-.5-4.9-.4-7.4.6-9.6,3.2-14.8,5.5-17.6l-6.4-12.9c-4.7,3.4-12.4,10.1-16.7,19.6-3.2,7.1-3.7,15.2-1.5,22.6,0,0,0,0,0,.1,1.8,6.3-.7,13.2-1.1,14.2-4-.1-7.4.4-10.2,1v-4.3c0-3.4-1.2-6.6-3.4-9.1l-2.6-3.1c2.6-1.5,5.5-2.3,8.5-2.3h3.5c-.2-1.5-.4-2.9-.4-4.4h-3c-4.4,0-8.6,1.3-12.2,3.8l-2.6,1.8s-.2.1-.3.1l5.8,6.9c1.5,1.7,2.3,4,2.3,6.3v39.3c0,4.7,3.8,8.4,8.4,8.4h37.6c4.7,0,8.5-3.8,8.5-8.4v-52.1c0-3.4-2.7-6.1-6.1-6.1h0ZM39.9,114.7c0-1.2,1-2.2,2.2-2.2s2.2,1,2.2,2.2-1,2.2-2.2,2.2-2.2-1-2.2-2.2ZM59.8,92.6c1.2,0,2.2,1,2.2,2.2s-1,2.2-2.2,2.2-2.2-1-2.2-2.2,1-2.2,2.2-2.2ZM68.6,110.2c0,2.4-2,4.4-4.4,4.4s-4.4-2-4.4-4.4,2-4.4,4.4-4.4,4.4,2,4.4,4.4ZM39.9,94.8c2.4,0,4.4,2,4.4,4.4s-2,4.4-4.4,4.4-4.4-2-4.4-4.4,2-4.4,4.4-4.4Z"/>
  <path d="M31.1,39.6c0,2.4-2,4.4-4.4,4.4s-4.4-2-4.4-4.4,2-4.4,4.4-4.4,4.4,2,4.4,4.4"/>
  <path d="M42.1,19.8c0,2.4-2,4.4-4.4,4.4s-4.4-2-4.4-4.4,2-4.4,4.4-4.4,4.4,2,4.4,4.4"/>
  <path d="M88.4,48.4c0,2.4-2,4.4-4.4,4.4s-4.4-2-4.4-4.4,2-4.4,4.4-4.4,4.4,2,4.4,4.4"/>
  </g>
</svg>