<?xml version="1.0" encoding="utf-8"?>
<!-- Generator: Adobe Illustrator 28.5.0, SVG Export Plug-In . SVG Version: 9.03 Build 54727)  -->
<svg version="1.1" id="Layer_1" xmlns="http://www.w3.org/2000/svg" xmlns:xlink="http://www.w3.org/1999/xlink" x="0px" y="0px"
	 viewBox="0 0 128 128" style="enable-background:new 0 0 128 128;" xml:space="preserve">
<style type="text/css">
	.st0{opacity:0.44;}
	.st1{opacity:0.22;}
</style>
<g id="icon">
<path d="M59.5,15c6.1,0,11.1,5,11.1,11.1v58.9c0,6.1-5,11.1-11.1,11.1H26.1C20,96,15,91,15,84.9V26.1C15,20,20,15,26.1,15H59.5
	 M59.5,9H26.1C16.6,9,9,16.6,9,26.1v58.9c0,9.4,7.6,17.1,17.1,17.1h33.4c9.4,0,17.1-7.6,17.1-17.1V26.1C76.5,16.6,68.9,9,59.5,9
	L59.5,9z"/>
<path class="st0" style="opacity:0.22" d="M44,117.5c-8.3,0-15.1-6.8-15.1-15.1V69C28.9,60.7,35.7,54,44,54h58.9c8.3,0,15.1,6.8,15.1,15.1v33.4
	c0,8.3-6.8,15.1-15.1,15.1H44z"/>
<path d="M84.9,15c6.1,0,11.1,5,11.1,11.1v33.4c0,6.1-5,11.1-11.1,11.1H26c-6.1,0-11.1-5-11.1-11.1V26c0-6.1,5-11.1,11.1-11.1H84.9
	 M84.9,9H26C16.6,9,8.9,16.6,8.9,26v33.4c0,9.4,7.6,17.1,17.1,17.1h58.9c9.4,0,17.1-7.6,17.1-17.1V26C101.9,16.6,94.3,9,84.9,9
	L84.9,9z"/>
<path class="st1" style="opacity:0.44" d="M74.7,84.8c0,8.3-6.8,15.1-15.1,15.1H26.3c-8.3,0-15.1-6.8-15.1-15.1V26c0-8.3,6.8-15.1,15.1-15.1h33.4
	c8.3,0,15.1,6.8,15.1,15.1V84.8z"/>
<path d="M102.1,57.9c6.1,0,11.1,5,11.1,11.1v33.4c0,6.1-5,11.1-11.1,11.1H43.3c-6.1,0-11.1-5-11.1-11.1V69c0-6.1,5-11.1,11.1-11.1
	H102.1 M102.1,51.9H43.3c-9.4,0-17.1,7.6-17.1,17.1v33.4c0,9.4,7.6,17.1,17.1,17.1h58.9c9.4,0,17.1-7.6,17.1-17.1V69
	C119.2,59.5,111.6,51.9,102.1,51.9L102.1,51.9z"/>
</g>
</svg>
