<?xml version="1.0" encoding="utf-8"?>
<!-- Generator: Adobe Illustrator 28.3.0, SVG Export Plug-In . SVG Version: 6.00 Build 0)  -->
<svg version="1.1" id="Layer_1" xmlns="http://www.w3.org/2000/svg" xmlns:xlink="http://www.w3.org/1999/xlink" x="0px" y="0px"
	 viewBox="0 0 128 128" style="enable-background:new 0 0 128 128;" xml:space="preserve">
<path 
  id="icon"
  fill="currentColor"
  d="M128,44.5c-0.2,1.8-0.5,3.5-0.7,5.3c-1.2,8.1-4.1,15.8-8.5,22.7c-6.4,10.5-14.9,19.2-24.2,27.2C82.5,109.9,69.6,119,56,127
	c-0.3-0.6-0.6-1.2-0.8-1.8c-6-13.2-14.3-25.3-24.6-35.5c-5.4-5.4-10.9-10.6-16.3-16l0,0c-4.3-4.2-7.9-9.1-10.5-14.6
	c-3.1-7-4.3-14.7-3.5-22.3C0.6,31.3,2.4,26,5.4,21.4c2.1-3.1,4.8-5.7,7.9-7.7s6.6-3.3,10.3-3.9c9.1-2,18.6-0.7,26.7,3.8
	c4.8,2.5,8.8,6.2,11.7,10.7l1.1-2.1l0,0c2.5-5,5.9-9.6,10-13.5c3-2.8,6.5-5,10.4-6.3c3.9-1.3,8-1.7,12.1-1.2
	c8.3,0.7,16,4.4,21.8,10.3c5.5,5.7,9,12.9,10.2,20.7c0.1,1,0.3,1.9,0.5,2.9L128,44.5z"/>
</svg>
