<?xml version="1.0" encoding="UTF-8" standalone="no"?>
<svg
   width="128px"
   height="128px"
   version="1.1"
   viewBox="0 0 128 128"
   id="svg1"
   xmlns="http://www.w3.org/2000/svg"
   xmlns:svg="http://www.w3.org/2000/svg">
  <path
     fill="currentColor"
     d="M 93.156041,45.724064 59.304686,14.9501 c -0.900163,-0.823184 -2.204156,-1.030889 -3.315872,-0.538544 -1.115586,0.492382 -1.831019,1.596388 -1.831019,2.815775 v 13.24019 c -8.666769,0.0077 -29.076877,1.954107 -42.413902,18.694977 -6.685665,8.393495 -8.9515316,23.164998 -9.8049955,28.727285 l -0.065393,0.41545 c -0.2077197,1.357916 0.5039208,2.685054 1.7502585,3.262036 0.4154492,0.192341 0.8539575,0.284674 1.2886494,0.284674 0.8732417,0 1.7310563,-0.373137 2.3311073,-1.065522 C 12.190415,75.058602 20.775858,67.364867 33.555669,63.237876 40.210557,61.091413 47.122465,60.175911 54.151238,60.5182 v 15.179356 c 0,1.188612 0.684731,2.26956 1.761831,2.781224 1.069382,0.503924 2.346542,0.353906 3.269754,-0.400056 L 93.034178,50.382159 c 0.692417,-0.565473 1.104008,-1.407892 1.127067,-2.300338 0.02313,-0.8963 -0.346208,-1.754115 -1.007826,-2.358018 z"
     id="icon" />
</svg>
